# Blender v2.93.0 OBJ File: ''
# www.blender.org
mtllib board.mtl
o Plane
v -1.000000 0.029039 0.970961
v -0.970961 0.000000 0.970961
v -0.970961 0.029039 1.000000
v -0.997790 0.017926 0.970961
v -0.991495 0.008505 0.970961
v -0.997790 0.029039 0.982074
v -0.995122 0.017647 0.982352
v -0.990018 0.009982 0.981775
v -0.987727 0.012273 0.987727
v -0.970961 0.002210 0.982074
v -0.970961 0.008505 0.991495
v -0.982074 0.002210 0.970961
v -0.982352 0.004878 0.982352
v -0.981775 0.009982 0.990018
v -0.982074 0.029039 0.997790
v -0.991495 0.029039 0.991495
v -0.970961 0.017926 0.997790
v -0.982352 0.017647 0.995122
v -0.990018 0.018225 0.990018
v 0.970961 0.029039 1.000000
v 0.970961 0.000000 0.970961
v 1.000000 0.029039 0.970961
v 0.970961 0.017926 0.997790
v 0.970961 0.008505 0.991495
v 0.982074 0.029039 0.997790
v 0.982352 0.017647 0.995122
v 0.981775 0.009982 0.990018
v 0.987727 0.012273 0.987727
v 0.982074 0.002210 0.970961
v 0.991495 0.008505 0.970961
v 0.970961 0.002210 0.982074
v 0.982352 0.004878 0.982352
v 0.990018 0.009982 0.981775
v 0.997790 0.029039 0.982074
v 0.991495 0.029039 0.991495
v 0.997790 0.017926 0.970961
v 0.995122 0.017647 0.982352
v 0.990018 0.018225 0.990018
v -1.000000 0.029039 -0.970961
v -0.970961 0.029039 -1.000000
v -0.970961 0.000000 -0.970961
v -0.997790 0.029039 -0.982074
v -0.991495 0.029039 -0.991495
v -0.997790 0.017926 -0.970961
v -0.995122 0.017647 -0.982352
v -0.990018 0.018225 -0.990018
v -0.987727 0.012273 -0.987727
v -0.970961 0.017926 -0.997790
v -0.970961 0.008505 -0.991495
v -0.982074 0.029039 -0.997790
v -0.982352 0.017647 -0.995122
v -0.981775 0.009982 -0.990018
v -0.982074 0.002210 -0.970961
v -0.991495 0.008505 -0.970961
v -0.970961 0.002210 -0.982074
v -0.982352 0.004878 -0.982352
v -0.990018 0.009982 -0.981775
v 1.000000 0.029039 -0.970961
v 0.970961 0.000000 -0.970961
v 0.970961 0.029039 -1.000000
v 0.997790 0.017926 -0.970961
v 0.991495 0.008505 -0.970961
v 0.997790 0.029039 -0.982074
v 0.995122 0.017647 -0.982352
v 0.990018 0.009982 -0.981775
v 0.987727 0.012273 -0.987727
v 0.970961 0.002210 -0.982074
v 0.970961 0.008505 -0.991495
v 0.982074 0.002210 -0.970961
v 0.982352 0.004878 -0.982352
v 0.981775 0.009982 -0.990018
v 0.982074 0.029039 -0.997790
v 0.991495 0.029039 -0.991495
v 0.970961 0.017926 -0.997790
v 0.982352 0.017647 -0.995122
v 0.990018 0.018225 -0.990018
v -1.000000 0.029039 0.970961
v -0.970961 0.029039 1.000000
v -0.970961 0.058077 0.970961
v -0.997790 0.029039 0.982074
v -0.991495 0.029039 0.991495
v -0.997790 0.040151 0.970961
v -0.995122 0.040430 0.982352
v -0.990018 0.039852 0.990018
v -0.987727 0.045804 0.987727
v -0.970961 0.040151 0.997790
v -0.970961 0.049572 0.991495
v -0.982074 0.029039 0.997790
v -0.982352 0.040430 0.995122
v -0.981775 0.048095 0.990018
v -0.982074 0.055867 0.970961
v -0.991495 0.049572 0.970961
v -0.970961 0.055867 0.982074
v -0.982352 0.053199 0.982352
v -0.990018 0.048095 0.981775
v 0.970961 0.029039 1.000000
v 1.000000 0.029039 0.970961
v 0.970961 0.058077 0.970961
v 0.982074 0.029039 0.997790
v 0.991495 0.029039 0.991495
v 0.970961 0.040151 0.997790
v 0.982352 0.040430 0.995122
v 0.990018 0.039852 0.990018
v 0.987727 0.045804 0.987727
v 0.997790 0.040151 0.970961
v 0.991495 0.049572 0.970961
v 0.997790 0.029039 0.982074
v 0.995122 0.040430 0.982352
v 0.990018 0.048095 0.981775
v 0.970961 0.055867 0.982074
v 0.970961 0.049572 0.991495
v 0.982074 0.055867 0.970961
v 0.982352 0.053199 0.982352
v 0.981775 0.048095 0.990018
v -1.000000 0.029039 -0.970961
v -0.970961 0.058077 -0.970961
v -0.970961 0.029039 -1.000000
v -0.997790 0.040151 -0.970961
v -0.991495 0.049572 -0.970961
v -0.997790 0.029039 -0.982074
v -0.995122 0.040430 -0.982352
v -0.990018 0.048095 -0.981775
v -0.987727 0.045804 -0.987727
v -0.970961 0.055867 -0.982074
v -0.970961 0.049572 -0.991495
v -0.982074 0.055867 -0.970961
v -0.982352 0.053199 -0.982352
v -0.981775 0.048095 -0.990018
v -0.982074 0.029039 -0.997790
v -0.991495 0.029039 -0.991495
v -0.970961 0.040151 -0.997790
v -0.982352 0.040430 -0.995122
v -0.990018 0.039852 -0.990018
v 1.000000 0.029039 -0.970961
v 0.970961 0.029039 -1.000000
v 0.970961 0.058077 -0.970961
v 0.997790 0.029039 -0.982074
v 0.991495 0.029039 -0.991495
v 0.997790 0.040151 -0.970961
v 0.995122 0.040430 -0.982352
v 0.990018 0.039852 -0.990018
v 0.987727 0.045804 -0.987727
v 0.970961 0.040151 -0.997790
v 0.970961 0.049572 -0.991495
v 0.982074 0.029039 -0.997790
v 0.982352 0.040430 -0.995122
v 0.981775 0.048095 -0.990018
v 0.982074 0.055867 -0.970961
v 0.991495 0.049572 -0.970961
v 0.970961 0.055867 -0.982074
v 0.982352 0.053199 -0.982352
v 0.990018 0.048095 -0.981775
vt 0.014519 0.000000
vt 0.985481 0.000000
vt 0.985481 0.000000
vt 0.014519 0.000000
vt 1.000000 0.014519
vt 1.000000 0.985481
vt 1.000000 0.985481
vt 1.000000 0.014519
vt 0.985481 1.000000
vt 0.014519 1.000000
vt 0.014519 1.000000
vt 0.985481 1.000000
vt 0.014519 0.014519
vt 0.014519 0.985481
vt 0.985481 0.985481
vt 0.985481 0.014519
vt 0.014519 0.014519
vt 0.985481 0.014519
vt 0.985481 0.985481
vt 0.014519 0.985481
vt 0.000000 0.014519
vt 0.000000 0.014519
vt 0.000000 0.008824
vt 0.000000 0.008963
vt 0.000000 0.014519
vt 0.000000 0.009113
vt 0.000000 0.000000
vt 0.000000 0.000000
vt 0.002046 0.002046
vt 0.014519 0.008963
vt 0.008824 0.008824
vt 0.008963 0.014519
vt 0.014519 0.000000
vt 0.009113 0.000000
vt 0.008963 0.000000
vt 0.008824 0.000000
vt 0.014519 0.000000
vt 0.985481 0.000000
vt 0.991176 0.000000
vt 0.991037 0.000000
vt 0.985481 0.000000
vt 0.990887 0.000000
vt 1.000000 0.000000
vt 1.000000 0.000000
vt 0.997955 0.002046
vt 0.991037 0.014519
vt 0.991176 0.008824
vt 0.985481 0.008963
vt 1.000000 0.014519
vt 1.000000 0.009113
vt 1.000000 0.008963
vt 1.000000 0.008824
vt 1.000000 0.014519
vt 0.000000 0.985481
vt 0.000000 0.991037
vt 0.000000 0.991176
vt 0.000000 0.985481
vt 0.000000 1.000000
vt 0.000000 1.000000
vt 0.000000 0.990887
vt 0.000000 0.985481
vt 0.002046 0.997955
vt 0.014519 1.000000
vt 0.008824 1.000000
vt 0.008963 1.000000
vt 0.014519 1.000000
vt 0.009113 1.000000
vt 0.008963 0.985481
vt 0.008824 0.991176
vt 0.014519 0.991037
vt 1.000000 0.985481
vt 1.000000 0.991176
vt 1.000000 0.991037
vt 1.000000 0.985481
vt 1.000000 0.990887
vt 1.000000 1.000000
vt 1.000000 1.000000
vt 0.997955 0.997955
vt 0.985481 0.991037
vt 0.991176 0.991176
vt 0.991037 0.985481
vt 0.985481 1.000000
vt 0.990887 1.000000
vt 0.991037 1.000000
vt 0.991176 1.000000
vt 0.985481 1.000000
vt 0.000000 0.014519
vt 0.000000 0.008963
vt 0.000000 0.008824
vt 0.000000 0.014519
vt 0.000000 0.000000
vt 0.000000 0.000000
vt 0.000000 0.009113
vt 0.000000 0.014519
vt 0.002046 0.002046
vt 0.014519 0.000000
vt 0.008824 0.000000
vt 0.008963 0.000000
vt 0.014519 0.000000
vt 0.009113 0.000000
vt 0.008963 0.014519
vt 0.008824 0.008824
vt 0.014519 0.008963
vt 0.991037 0.000000
vt 0.991176 0.000000
vt 0.985481 0.000000
vt 1.000000 0.000000
vt 1.000000 0.000000
vt 0.990887 0.000000
vt 0.985481 0.000000
vt 0.997955 0.002046
vt 1.000000 0.014519
vt 1.000000 0.008824
vt 1.000000 0.008963
vt 1.000000 0.014519
vt 1.000000 0.009113
vt 0.985481 0.008963
vt 0.991176 0.008824
vt 0.991037 0.014519
vt 0.000000 0.985481
vt 0.000000 0.985481
vt 0.000000 0.991176
vt 0.000000 0.991037
vt 0.000000 0.985481
vt 0.000000 0.990887
vt 0.000000 1.000000
vt 0.000000 1.000000
vt 0.002046 0.997955
vt 0.014519 0.991037
vt 0.008824 0.991176
vt 0.008963 0.985481
vt 0.014519 1.000000
vt 0.009113 1.000000
vt 0.008963 1.000000
vt 0.008824 1.000000
vt 0.014519 1.000000
vt 1.000000 0.991037
vt 1.000000 0.991176
vt 1.000000 0.985481
vt 1.000000 1.000000
vt 1.000000 1.000000
vt 1.000000 0.990887
vt 1.000000 0.985481
vt 0.997955 0.997955
vt 0.985481 1.000000
vt 0.991176 1.000000
vt 0.991037 1.000000
vt 0.985481 1.000000
vt 0.990887 1.000000
vt 0.991037 0.985481
vt 0.991176 0.991176
vt 0.985481 0.991037
vn 0.0000 0.0000 1.0000
vn 1.0000 0.0000 0.0000
vn 0.0000 0.0000 -1.0000
vn 0.0000 -1.0000 0.0000
vn 0.0000 1.0000 0.0000
vn -0.9571 -0.2049 0.2049
vn -0.8152 -0.5499 0.1818
vn -0.8152 -0.1818 0.5499
vn -0.7167 -0.4931 0.4931
vn -0.2049 -0.9571 0.2049
vn -0.1818 -0.8152 0.5500
vn -0.5500 -0.8152 0.1818
vn -0.4931 -0.7167 0.4931
vn -0.2049 -0.2049 0.9571
vn -0.5499 -0.1818 0.8152
vn -0.1818 -0.5500 0.8152
vn -0.4931 -0.4931 0.7167
vn 0.2049 -0.2049 0.9571
vn 0.1818 -0.5500 0.8152
vn 0.5499 -0.1818 0.8152
vn 0.4931 -0.4931 0.7167
vn 0.2049 -0.9571 0.2049
vn 0.5499 -0.8152 0.1818
vn 0.1818 -0.8152 0.5500
vn 0.4931 -0.7167 0.4931
vn 0.9571 -0.2049 0.2049
vn 0.8152 -0.1818 0.5499
vn 0.8152 -0.5499 0.1818
vn 0.7167 -0.4931 0.4931
vn -0.9571 -0.2049 -0.2049
vn -0.8152 -0.1818 -0.5499
vn -0.8152 -0.5499 -0.1818
vn -0.7167 -0.4931 -0.4931
vn -0.2049 -0.2049 -0.9571
vn -0.1818 -0.5500 -0.8152
vn -0.5499 -0.1818 -0.8152
vn -0.4931 -0.4931 -0.7167
vn -0.2049 -0.9571 -0.2049
vn -0.5499 -0.8152 -0.1818
vn -0.1818 -0.8152 -0.5500
vn -0.4931 -0.7167 -0.4931
vn 0.9571 -0.2049 -0.2049
vn 0.8152 -0.5499 -0.1818
vn 0.8152 -0.1818 -0.5499
vn 0.7167 -0.4931 -0.4931
vn 0.2049 -0.9571 -0.2049
vn 0.1818 -0.8152 -0.5500
vn 0.5500 -0.8152 -0.1818
vn 0.4931 -0.7167 -0.4931
vn 0.2049 -0.2049 -0.9571
vn 0.5499 -0.1818 -0.8152
vn 0.1818 -0.5500 -0.8152
vn 0.4931 -0.4931 -0.7167
vn -0.9571 0.2049 0.2049
vn -0.8152 0.1818 0.5499
vn -0.8152 0.5499 0.1818
vn -0.7167 0.4931 0.4931
vn -0.2049 0.2049 0.9571
vn -0.1818 0.5500 0.8152
vn -0.5499 0.1818 0.8152
vn -0.4931 0.4931 0.7167
vn -0.2049 0.9571 0.2049
vn -0.5499 0.8152 0.1818
vn -0.1818 0.8152 0.5500
vn -0.4931 0.7167 0.4931
vn 0.2049 0.2049 0.9571
vn 0.5499 0.1818 0.8152
vn 0.1818 0.5500 0.8152
vn 0.4931 0.4931 0.7167
vn 0.9571 0.2049 0.2049
vn 0.8152 0.5499 0.1818
vn 0.8152 0.1818 0.5499
vn 0.7167 0.4931 0.4931
vn 0.2049 0.9571 0.2049
vn 0.1818 0.8152 0.5500
vn 0.5499 0.8152 0.1818
vn 0.4931 0.7167 0.4931
vn -0.9571 0.2049 -0.2049
vn -0.8152 0.5499 -0.1818
vn -0.8152 0.1818 -0.5499
vn -0.7167 0.4931 -0.4931
vn -0.2049 0.9571 -0.2049
vn -0.1818 0.8152 -0.5500
vn -0.5500 0.8152 -0.1818
vn -0.4931 0.7167 -0.4931
vn -0.2049 0.2049 -0.9571
vn -0.5499 0.1818 -0.8152
vn -0.1818 0.5500 -0.8152
vn -0.4931 0.4931 -0.7167
vn 0.9571 0.2049 -0.2049
vn 0.8152 0.1818 -0.5499
vn 0.8152 0.5499 -0.1818
vn 0.7167 0.4931 -0.4931
vn 0.2049 0.2049 -0.9571
vn 0.1818 0.5500 -0.8152
vn 0.5499 0.1818 -0.8152
vn 0.4931 0.4931 -0.7167
vn 0.2049 0.9571 -0.2049
vn 0.5499 0.8152 -0.1818
vn 0.1818 0.8152 -0.5500
vn 0.4931 0.7167 -0.4931
vn -0.1951 -0.9808 0.0000
vn -0.5556 -0.8315 0.0000
vn -0.8315 -0.5556 0.0000
vn -0.9808 -0.1951 0.0000
vn 0.0000 -0.9808 0.1951
vn 0.0000 -0.8315 0.5556
vn -0.0000 -0.5556 0.8315
vn 0.0000 -0.1951 0.9808
vn 0.1951 -0.9808 0.0000
vn 0.5556 -0.8315 0.0000
vn 0.8315 -0.5556 -0.0000
vn 0.9808 -0.1951 -0.0000
vn 0.0000 -0.9808 -0.1951
vn 0.0000 -0.8315 -0.5556
vn 0.0000 -0.5556 -0.8315
vn 0.0000 -0.1951 -0.9808
vn -0.9808 0.1951 -0.0000
vn -0.8315 0.5556 -0.0000
vn -0.5556 0.8315 0.0000
vn -0.1951 0.9808 0.0000
vn 0.0000 0.1951 0.9808
vn -0.0000 0.5556 0.8315
vn 0.0000 0.8315 0.5556
vn 0.0000 0.9808 0.1951
vn 0.9808 0.1951 0.0000
vn 0.8315 0.5556 0.0000
vn 0.5556 0.8315 0.0000
vn 0.1951 0.9808 0.0000
vn 0.0000 0.1951 -0.9808
vn 0.0000 0.5556 -0.8315
vn 0.0000 0.8315 -0.5556
vn 0.0000 0.9808 -0.1951
vn 0.9736 0.0000 0.2282
vn 0.8752 0.0000 0.4838
vn 0.4846 0.0000 0.8748
vn 0.1909 0.0000 0.9816
vn -0.9688 0.0000 0.2477
vn -0.7985 0.0000 0.6020
vn -0.6716 0.0000 0.7409
vn -0.2076 0.0000 0.9782
vn 0.2076 0.0000 -0.9782
vn 0.6716 0.0000 -0.7409
vn 0.7985 0.0000 -0.6020
vn 0.9688 0.0000 -0.2477
vn -0.1909 0.0000 -0.9816
vn -0.4846 0.0000 -0.8748
vn -0.8752 0.0000 -0.4838
vn -0.9736 0.0000 -0.2282
vn -1.0000 0.0000 0.0000
usemtl None
s off
f 3/1/1 20/2/1 96/3/1 78/4/1
f 22/5/2 58/6/2 134/7/2 97/8/2
f 60/9/3 40/10/3 117/11/3 135/12/3
f 2/13/4 41/14/4 59/15/4 21/16/4
f 79/17/5 98/18/5 136/19/5 116/20/5
f 1/21/6 4/22/6 7/23/6 6/24/6
f 4/22/7 5/25/7 8/26/7 7/23/7
f 6/24/8 7/23/8 19/27/8 16/28/8
f 7/23/9 8/26/9 9/29/9 19/27/9
f 2/13/10 10/30/10 13/31/10 12/32/10
f 10/30/11 11/33/11 14/34/11 13/31/11
f 12/32/12 13/31/12 8/26/12 5/25/12
f 13/31/13 14/34/13 9/29/13 8/26/13
f 3/1/14 15/35/14 18/36/14 17/37/14
f 15/35/15 16/28/15 19/27/15 18/36/15
f 17/37/16 18/36/16 14/34/16 11/33/16
f 18/36/17 19/27/17 9/29/17 14/34/17
f 20/2/18 23/38/18 26/39/18 25/40/18
f 23/38/19 24/41/19 27/42/19 26/39/19
f 25/40/20 26/39/20 38/43/20 35/44/20
f 26/39/21 27/42/21 28/45/21 38/43/21
f 21/16/22 29/46/22 32/47/22 31/48/22
f 29/46/23 30/49/23 33/50/23 32/47/23
f 31/48/24 32/47/24 27/42/24 24/41/24
f 32/47/25 33/50/25 28/45/25 27/42/25
f 22/5/26 34/51/26 37/52/26 36/53/26
f 34/51/27 35/44/27 38/43/27 37/52/27
f 36/53/28 37/52/28 33/50/28 30/49/28
f 37/52/29 38/43/29 28/45/29 33/50/29
f 39/54/30 42/55/30 45/56/30 44/57/30
f 42/55/31 43/58/31 46/59/31 45/56/31
f 44/57/32 45/56/32 57/60/32 54/61/32
f 45/56/33 46/59/33 47/62/33 57/60/33
f 40/10/34 48/63/34 51/64/34 50/65/34
f 48/63/35 49/66/35 52/67/35 51/64/35
f 50/65/36 51/64/36 46/59/36 43/58/36
f 51/64/37 52/67/37 47/62/37 46/59/37
f 41/14/38 53/68/38 56/69/38 55/70/38
f 53/68/39 54/61/39 57/60/39 56/69/39
f 55/70/40 56/69/40 52/67/40 49/66/40
f 56/69/41 57/60/41 47/62/41 52/67/41
f 58/6/42 61/71/42 64/72/42 63/73/42
f 61/71/43 62/74/43 65/75/43 64/72/43
f 63/73/44 64/72/44 76/76/44 73/77/44
f 64/72/45 65/75/45 66/78/45 76/76/45
f 59/15/46 67/79/46 70/80/46 69/81/46
f 67/79/47 68/82/47 71/83/47 70/80/47
f 69/81/48 70/80/48 65/75/48 62/74/48
f 70/80/49 71/83/49 66/78/49 65/75/49
f 60/9/50 72/84/50 75/85/50 74/86/50
f 72/84/51 73/77/51 76/76/51 75/85/51
f 74/86/52 75/85/52 71/83/52 68/82/52
f 75/85/53 76/76/53 66/78/53 71/83/53
f 77/87/54 80/88/54 83/89/54 82/90/54
f 80/88/55 81/91/55 84/92/55 83/89/55
f 82/90/56 83/89/56 95/93/56 92/94/56
f 83/89/57 84/92/57 85/95/57 95/93/57
f 78/4/58 86/96/58 89/97/58 88/98/58
f 86/96/59 87/99/59 90/100/59 89/97/59
f 88/98/60 89/97/60 84/92/60 81/91/60
f 89/97/61 90/100/61 85/95/61 84/92/61
f 79/17/62 91/101/62 94/102/62 93/103/62
f 91/101/63 92/94/63 95/93/63 94/102/63
f 93/103/64 94/102/64 90/100/64 87/99/64
f 94/102/65 95/93/65 85/95/65 90/100/65
f 96/3/66 99/104/66 102/105/66 101/106/66
f 99/104/67 100/107/67 103/108/67 102/105/67
f 101/106/68 102/105/68 114/109/68 111/110/68
f 102/105/69 103/108/69 104/111/69 114/109/69
f 97/8/70 105/112/70 108/113/70 107/114/70
f 105/112/71 106/115/71 109/116/71 108/113/71
f 107/114/72 108/113/72 103/108/72 100/107/72
f 108/113/73 109/116/73 104/111/73 103/108/73
f 98/18/74 110/117/74 113/118/74 112/119/74
f 110/117/75 111/110/75 114/109/75 113/118/75
f 112/119/76 113/118/76 109/116/76 106/115/76
f 113/118/77 114/109/77 104/111/77 109/116/77
f 115/120/78 118/121/78 121/122/78 120/123/78
f 118/121/79 119/124/79 122/125/79 121/122/79
f 120/123/80 121/122/80 133/126/80 130/127/80
f 121/122/81 122/125/81 123/128/81 133/126/81
f 116/20/82 124/129/82 127/130/82 126/131/82
f 124/129/83 125/132/83 128/133/83 127/130/83
f 126/131/84 127/130/84 122/125/84 119/124/84
f 127/130/85 128/133/85 123/128/85 122/125/85
f 117/11/86 129/134/86 132/135/86 131/136/86
f 129/134/87 130/127/87 133/126/87 132/135/87
f 131/136/88 132/135/88 128/133/88 125/132/88
f 132/135/89 133/126/89 123/128/89 128/133/89
f 134/7/90 137/137/90 140/138/90 139/139/90
f 137/137/91 138/140/91 141/141/91 140/138/91
f 139/139/92 140/138/92 152/142/92 149/143/92
f 140/138/93 141/141/93 142/144/93 152/142/93
f 135/12/94 143/145/94 146/146/94 145/147/94
f 143/145/95 144/148/95 147/149/95 146/146/95
f 145/147/96 146/146/96 141/141/96 138/140/96
f 146/146/97 147/149/97 142/144/97 141/141/97
f 136/19/98 148/150/98 151/151/98 150/152/98
f 148/150/99 149/143/99 152/142/99 151/151/99
f 150/152/100 151/151/100 147/149/100 144/148/100
f 151/151/101 152/142/101 142/144/101 147/149/101
f 41/14/102 2/13/102 12/32/102 53/68/102
f 53/68/103 12/32/103 5/25/103 54/61/103
f 54/61/104 5/25/104 4/22/104 44/57/104
f 44/57/105 4/22/105 1/21/105 39/54/105
f 2/13/106 21/16/106 31/48/106 10/30/106
f 10/30/107 31/48/107 24/41/107 11/33/107
f 11/33/108 24/41/108 23/38/108 17/37/108
f 17/37/109 23/38/109 20/2/109 3/1/109
f 21/16/110 59/15/110 69/81/110 29/46/110
f 29/46/111 69/81/111 62/74/111 30/49/111
f 30/49/112 62/74/112 61/71/112 36/53/112
f 36/53/113 61/71/113 58/6/113 22/5/113
f 59/15/114 41/14/114 55/70/114 67/79/114
f 67/79/115 55/70/115 49/66/115 68/82/115
f 68/82/116 49/66/116 48/63/116 74/86/116
f 74/86/117 48/63/117 40/10/117 60/9/117
f 115/120/118 77/87/118 82/90/118 118/121/118
f 118/121/119 82/90/119 92/94/119 119/124/119
f 119/124/120 92/94/120 91/101/120 126/131/120
f 126/131/121 91/101/121 79/17/121 116/20/121
f 78/4/122 96/3/122 101/106/122 86/96/122
f 86/96/123 101/106/123 111/110/123 87/99/123
f 87/99/124 111/110/124 110/117/124 93/103/124
f 93/103/125 110/117/125 98/18/125 79/17/125
f 97/8/126 134/7/126 139/139/126 105/112/126
f 105/112/127 139/139/127 149/143/127 106/115/127
f 106/115/128 149/143/128 148/150/128 112/119/128
f 112/119/129 148/150/129 136/19/129 98/18/129
f 135/12/130 117/11/130 131/136/130 143/145/130
f 143/145/131 131/136/131 125/132/131 144/148/131
f 144/148/132 125/132/132 124/129/132 150/152/132
f 150/152/133 124/129/133 116/20/133 136/19/133
f 22/5/134 97/8/134 107/114/134 34/51/134
f 34/51/135 107/114/135 100/107/135 35/44/135
f 35/44/136 100/107/136 99/104/136 25/40/136
f 25/40/137 99/104/137 96/3/137 20/2/137
f 77/87/138 1/21/138 6/24/138 80/88/138
f 80/88/139 6/24/139 16/28/139 81/91/139
f 81/91/140 16/28/140 15/35/140 88/98/140
f 88/98/141 15/35/141 3/1/141 78/4/141
f 60/9/142 135/12/142 145/147/142 72/84/142
f 72/84/143 145/147/143 138/140/143 73/77/143
f 73/77/144 138/140/144 137/137/144 63/73/144
f 63/73/145 137/137/145 134/7/145 58/6/145
f 117/11/146 40/10/146 50/65/146 129/134/146
f 129/134/147 50/65/147 43/58/147 130/127/147
f 130/127/148 43/58/148 42/55/148 120/123/148
f 120/123/149 42/55/149 39/54/149 115/120/149
f 39/54/150 1/21/150 77/87/150 115/120/150
